<mxfile modified="2023-03-15T21:54:06.740Z" host="Electron" agent="5.0 (Windows NT 10.0; Win64; x64) AppleWebKit/537.36 (KHTML, like Gecko) draw.io/20.3.0 Chrome/104.0.5112.114 Electron/20.1.3 Safari/537.36" etag="tQPO794qGWlYhg3-76qk" compressed="false" version="20.3.0" type="device">
  <diagram id="UU4A3Z9uo3Rj8lSjhz4r" name="Workflows">
    <mxGraphModel dx="782" dy="517" grid="1" gridSize="10" guides="1" tooltips="1" connect="1" arrows="1" fold="1" page="1" pageScale="1" pageWidth="827" pageHeight="1169" math="0" shadow="0">
      <root>
        <mxCell id="LgvOT38yp8BPmumaJpFH-0" />
        <mxCell id="LgvOT38yp8BPmumaJpFH-1" parent="LgvOT38yp8BPmumaJpFH-0" />
        <mxCell id="3cwJru8-qFUgOf6ZfqIE-56" style="edgeStyle=none;rounded=0;orthogonalLoop=1;jettySize=auto;html=1;entryX=0.008;entryY=0.251;entryDx=0;entryDy=0;entryPerimeter=0;endArrow=open;endFill=0;" parent="LgvOT38yp8BPmumaJpFH-1" source="3cwJru8-qFUgOf6ZfqIE-0" target="3cwJru8-qFUgOf6ZfqIE-14" edge="1">
          <mxGeometry relative="1" as="geometry" />
        </mxCell>
        <mxCell id="3cwJru8-qFUgOf6ZfqIE-57" style="edgeStyle=none;rounded=0;orthogonalLoop=1;jettySize=auto;html=1;entryX=0;entryY=0.75;entryDx=0;entryDy=0;endArrow=open;endFill=0;" parent="LgvOT38yp8BPmumaJpFH-1" source="3cwJru8-qFUgOf6ZfqIE-0" target="3cwJru8-qFUgOf6ZfqIE-17" edge="1">
          <mxGeometry relative="1" as="geometry" />
        </mxCell>
        <mxCell id="3cwJru8-qFUgOf6ZfqIE-58" style="edgeStyle=none;rounded=0;orthogonalLoop=1;jettySize=auto;html=1;endArrow=open;endFill=0;" parent="LgvOT38yp8BPmumaJpFH-1" source="3cwJru8-qFUgOf6ZfqIE-0" edge="1">
          <mxGeometry relative="1" as="geometry">
            <mxPoint x="240" y="250" as="targetPoint" />
          </mxGeometry>
        </mxCell>
        <mxCell id="3cwJru8-qFUgOf6ZfqIE-0" value="&lt;p style=&quot;line-height: 100%&quot;&gt;&amp;lt;&amp;lt;actor&amp;gt;&amp;gt;&lt;br&gt;&lt;b&gt;Sys Admin&lt;/b&gt;&lt;/p&gt;" style="text;html=1;align=center;verticalAlign=middle;dashed=0;strokeColor=#000000;strokeWidth=2;" parent="LgvOT38yp8BPmumaJpFH-1" vertex="1">
          <mxGeometry x="120" y="151.5" width="80" height="60" as="geometry" />
        </mxCell>
        <mxCell id="3cwJru8-qFUgOf6ZfqIE-1" value="" style="fontStyle=1;align=center;verticalAlign=top;childLayout=stackLayout;horizontal=1;horizontalStack=0;resizeParent=1;resizeParentMax=0;resizeLast=0;marginBottom=0;strokeColor=#82b366;strokeWidth=2;fillColor=none;" parent="LgvOT38yp8BPmumaJpFH-1" vertex="1">
          <mxGeometry x="239" y="220" width="120" height="63" as="geometry" />
        </mxCell>
        <mxCell id="3cwJru8-qFUgOf6ZfqIE-2" value="List SummaryItems &lt;br&gt;of Worflows Definitions" style="html=1;align=left;spacingLeft=4;verticalAlign=middle;strokeColor=none;fillColor=none;fontStyle=1" parent="3cwJru8-qFUgOf6ZfqIE-1" vertex="1">
          <mxGeometry width="120" height="30" as="geometry" />
        </mxCell>
        <mxCell id="3cwJru8-qFUgOf6ZfqIE-3" value="" style="shape=ellipse;" parent="3cwJru8-qFUgOf6ZfqIE-2" vertex="1">
          <mxGeometry x="1" width="10" height="16" relative="1" as="geometry">
            <mxPoint x="-25" y="7" as="offset" />
          </mxGeometry>
        </mxCell>
        <mxCell id="3cwJru8-qFUgOf6ZfqIE-4" value="" style="line;strokeWidth=1;fillColor=none;align=left;verticalAlign=middle;spacingTop=-1;spacingLeft=3;spacingRight=3;rotatable=0;labelPosition=right;points=[];portConstraint=eastwest;" parent="3cwJru8-qFUgOf6ZfqIE-1" vertex="1">
          <mxGeometry y="30" width="120" height="8" as="geometry" />
        </mxCell>
        <mxCell id="3cwJru8-qFUgOf6ZfqIE-5" value="." style="html=1;align=center;spacingLeft=4;verticalAlign=top;strokeColor=none;fillColor=none;" parent="3cwJru8-qFUgOf6ZfqIE-1" vertex="1">
          <mxGeometry y="38" width="120" height="25" as="geometry" />
        </mxCell>
        <mxCell id="3cwJru8-qFUgOf6ZfqIE-6" value="" style="fontStyle=1;align=center;verticalAlign=top;childLayout=stackLayout;horizontal=1;horizontalStack=0;resizeParent=1;resizeParentMax=0;resizeLast=0;marginBottom=0;strokeColor=#82b366;strokeWidth=2;fillColor=none;" parent="LgvOT38yp8BPmumaJpFH-1" vertex="1">
          <mxGeometry x="240" y="290" width="120" height="63" as="geometry" />
        </mxCell>
        <mxCell id="3cwJru8-qFUgOf6ZfqIE-7" value="View a&amp;nbsp;&lt;br&gt;Worflow Definition" style="html=1;align=left;spacingLeft=4;verticalAlign=middle;strokeColor=none;fillColor=none;fontStyle=1" parent="3cwJru8-qFUgOf6ZfqIE-6" vertex="1">
          <mxGeometry width="120" height="30" as="geometry" />
        </mxCell>
        <mxCell id="3cwJru8-qFUgOf6ZfqIE-8" value="" style="shape=ellipse;" parent="3cwJru8-qFUgOf6ZfqIE-7" vertex="1">
          <mxGeometry x="1" width="10" height="16" relative="1" as="geometry">
            <mxPoint x="-25" y="7" as="offset" />
          </mxGeometry>
        </mxCell>
        <mxCell id="3cwJru8-qFUgOf6ZfqIE-9" value="" style="line;strokeWidth=1;fillColor=none;align=left;verticalAlign=middle;spacingTop=-1;spacingLeft=3;spacingRight=3;rotatable=0;labelPosition=right;points=[];portConstraint=eastwest;" parent="3cwJru8-qFUgOf6ZfqIE-6" vertex="1">
          <mxGeometry y="30" width="120" height="8" as="geometry" />
        </mxCell>
        <mxCell id="3cwJru8-qFUgOf6ZfqIE-10" value="." style="html=1;align=center;spacingLeft=4;verticalAlign=top;strokeColor=none;fillColor=none;" parent="3cwJru8-qFUgOf6ZfqIE-6" vertex="1">
          <mxGeometry y="38" width="120" height="25" as="geometry" />
        </mxCell>
        <mxCell id="3cwJru8-qFUgOf6ZfqIE-11" value="" style="fontStyle=1;align=center;verticalAlign=top;childLayout=stackLayout;horizontal=1;horizontalStack=0;resizeParent=1;resizeParentMax=0;resizeLast=0;marginBottom=0;strokeColor=#82b366;strokeWidth=2;fillColor=none;" parent="LgvOT38yp8BPmumaJpFH-1" vertex="1">
          <mxGeometry x="239" y="80" width="120" height="63" as="geometry" />
        </mxCell>
        <mxCell id="3cwJru8-qFUgOf6ZfqIE-12" value="Create a&amp;nbsp;&lt;br&gt;Worflow Definition" style="html=1;align=left;spacingLeft=4;verticalAlign=middle;strokeColor=none;fillColor=none;fontStyle=1" parent="3cwJru8-qFUgOf6ZfqIE-11" vertex="1">
          <mxGeometry width="120" height="30" as="geometry" />
        </mxCell>
        <mxCell id="3cwJru8-qFUgOf6ZfqIE-13" value="" style="shape=ellipse;" parent="3cwJru8-qFUgOf6ZfqIE-12" vertex="1">
          <mxGeometry x="1" width="10" height="16" relative="1" as="geometry">
            <mxPoint x="-25" y="7" as="offset" />
          </mxGeometry>
        </mxCell>
        <mxCell id="3cwJru8-qFUgOf6ZfqIE-14" value="" style="line;strokeWidth=1;fillColor=none;align=left;verticalAlign=middle;spacingTop=-1;spacingLeft=3;spacingRight=3;rotatable=0;labelPosition=right;points=[];portConstraint=eastwest;" parent="3cwJru8-qFUgOf6ZfqIE-11" vertex="1">
          <mxGeometry y="30" width="120" height="8" as="geometry" />
        </mxCell>
        <mxCell id="3cwJru8-qFUgOf6ZfqIE-15" value="." style="html=1;align=center;spacingLeft=4;verticalAlign=top;strokeColor=none;fillColor=none;" parent="3cwJru8-qFUgOf6ZfqIE-11" vertex="1">
          <mxGeometry y="38" width="120" height="25" as="geometry" />
        </mxCell>
        <mxCell id="3cwJru8-qFUgOf6ZfqIE-16" value="" style="fontStyle=1;align=center;verticalAlign=top;childLayout=stackLayout;horizontal=1;horizontalStack=0;resizeParent=1;resizeParentMax=0;resizeLast=0;marginBottom=0;strokeColor=#82b366;strokeWidth=2;fillColor=none;" parent="LgvOT38yp8BPmumaJpFH-1" vertex="1">
          <mxGeometry x="239" y="150" width="120" height="63" as="geometry" />
        </mxCell>
        <mxCell id="3cwJru8-qFUgOf6ZfqIE-17" value="Change State of&lt;br&gt;&amp;nbsp;a&amp;nbsp;Worflow Definition" style="html=1;align=left;spacingLeft=4;verticalAlign=middle;strokeColor=none;fillColor=none;fontStyle=1" parent="3cwJru8-qFUgOf6ZfqIE-16" vertex="1">
          <mxGeometry width="120" height="30" as="geometry" />
        </mxCell>
        <mxCell id="3cwJru8-qFUgOf6ZfqIE-18" value="" style="shape=ellipse;" parent="3cwJru8-qFUgOf6ZfqIE-17" vertex="1">
          <mxGeometry x="1" width="10" height="16" relative="1" as="geometry">
            <mxPoint x="-25" y="7" as="offset" />
          </mxGeometry>
        </mxCell>
        <mxCell id="3cwJru8-qFUgOf6ZfqIE-19" value="" style="line;strokeWidth=1;fillColor=none;align=left;verticalAlign=middle;spacingTop=-1;spacingLeft=3;spacingRight=3;rotatable=0;labelPosition=right;points=[];portConstraint=eastwest;" parent="3cwJru8-qFUgOf6ZfqIE-16" vertex="1">
          <mxGeometry y="30" width="120" height="8" as="geometry" />
        </mxCell>
        <mxCell id="3cwJru8-qFUgOf6ZfqIE-20" value="." style="html=1;align=center;spacingLeft=4;verticalAlign=top;strokeColor=none;fillColor=none;" parent="3cwJru8-qFUgOf6ZfqIE-16" vertex="1">
          <mxGeometry y="38" width="120" height="25" as="geometry" />
        </mxCell>
        <mxCell id="3cwJru8-qFUgOf6ZfqIE-21" value="" style="fontStyle=1;align=center;verticalAlign=top;childLayout=stackLayout;horizontal=1;horizontalStack=0;resizeParent=1;resizeParentMax=0;resizeLast=0;marginBottom=0;strokeColor=#82b366;strokeWidth=2;fillColor=none;" parent="LgvOT38yp8BPmumaJpFH-1" vertex="1">
          <mxGeometry x="519" y="152" width="120" height="63" as="geometry" />
        </mxCell>
        <mxCell id="3cwJru8-qFUgOf6ZfqIE-22" value="Create&amp;nbsp;a&lt;br&gt;&amp;nbsp;Worflow Instance" style="html=1;align=left;spacingLeft=4;verticalAlign=middle;strokeColor=none;fillColor=none;fontStyle=1" parent="3cwJru8-qFUgOf6ZfqIE-21" vertex="1">
          <mxGeometry width="120" height="30" as="geometry" />
        </mxCell>
        <mxCell id="3cwJru8-qFUgOf6ZfqIE-23" value="" style="shape=ellipse;" parent="3cwJru8-qFUgOf6ZfqIE-22" vertex="1">
          <mxGeometry x="1" width="10" height="16" relative="1" as="geometry">
            <mxPoint x="-25" y="7" as="offset" />
          </mxGeometry>
        </mxCell>
        <mxCell id="3cwJru8-qFUgOf6ZfqIE-24" value="" style="line;strokeWidth=1;fillColor=none;align=left;verticalAlign=middle;spacingTop=-1;spacingLeft=3;spacingRight=3;rotatable=0;labelPosition=right;points=[];portConstraint=eastwest;" parent="3cwJru8-qFUgOf6ZfqIE-21" vertex="1">
          <mxGeometry y="30" width="120" height="8" as="geometry" />
        </mxCell>
        <mxCell id="3cwJru8-qFUgOf6ZfqIE-25" value="." style="html=1;align=center;spacingLeft=4;verticalAlign=top;strokeColor=none;fillColor=none;" parent="3cwJru8-qFUgOf6ZfqIE-21" vertex="1">
          <mxGeometry y="38" width="120" height="25" as="geometry" />
        </mxCell>
        <mxCell id="3cwJru8-qFUgOf6ZfqIE-26" value="" style="fontStyle=1;align=center;verticalAlign=top;childLayout=stackLayout;horizontal=1;horizontalStack=0;resizeParent=1;resizeParentMax=0;resizeLast=0;marginBottom=0;strokeColor=#82b366;strokeWidth=2;fillColor=none;" parent="LgvOT38yp8BPmumaJpFH-1" vertex="1">
          <mxGeometry x="519" y="82" width="120" height="63" as="geometry" />
        </mxCell>
        <mxCell id="3cwJru8-qFUgOf6ZfqIE-27" value="List SummarItems&lt;br&gt;of&amp;nbsp;&amp;nbsp;&lt;br&gt;Worflow Instances" style="html=1;align=left;spacingLeft=4;verticalAlign=middle;strokeColor=none;fillColor=none;fontStyle=1" parent="3cwJru8-qFUgOf6ZfqIE-26" vertex="1">
          <mxGeometry width="120" height="30" as="geometry" />
        </mxCell>
        <mxCell id="3cwJru8-qFUgOf6ZfqIE-28" value="" style="shape=ellipse;" parent="3cwJru8-qFUgOf6ZfqIE-27" vertex="1">
          <mxGeometry x="1" width="10" height="16" relative="1" as="geometry">
            <mxPoint x="-25" y="7" as="offset" />
          </mxGeometry>
        </mxCell>
        <mxCell id="3cwJru8-qFUgOf6ZfqIE-29" value="" style="line;strokeWidth=1;fillColor=none;align=left;verticalAlign=middle;spacingTop=-1;spacingLeft=3;spacingRight=3;rotatable=0;labelPosition=right;points=[];portConstraint=eastwest;" parent="3cwJru8-qFUgOf6ZfqIE-26" vertex="1">
          <mxGeometry y="30" width="120" height="8" as="geometry" />
        </mxCell>
        <mxCell id="3cwJru8-qFUgOf6ZfqIE-30" value="." style="html=1;align=center;spacingLeft=4;verticalAlign=top;strokeColor=none;fillColor=none;" parent="3cwJru8-qFUgOf6ZfqIE-26" vertex="1">
          <mxGeometry y="38" width="120" height="25" as="geometry" />
        </mxCell>
        <mxCell id="3cwJru8-qFUgOf6ZfqIE-31" value="" style="fontStyle=1;align=center;verticalAlign=top;childLayout=stackLayout;horizontal=1;horizontalStack=0;resizeParent=1;resizeParentMax=0;resizeLast=0;marginBottom=0;strokeColor=#82b366;strokeWidth=2;fillColor=none;" parent="LgvOT38yp8BPmumaJpFH-1" vertex="1">
          <mxGeometry x="519" y="222" width="120" height="63" as="geometry" />
        </mxCell>
        <mxCell id="3cwJru8-qFUgOf6ZfqIE-32" value="View a&lt;br&gt;&amp;nbsp;Worflow Instance" style="html=1;align=left;spacingLeft=4;verticalAlign=middle;strokeColor=none;fillColor=none;fontStyle=1" parent="3cwJru8-qFUgOf6ZfqIE-31" vertex="1">
          <mxGeometry width="120" height="30" as="geometry" />
        </mxCell>
        <mxCell id="3cwJru8-qFUgOf6ZfqIE-33" value="" style="shape=ellipse;" parent="3cwJru8-qFUgOf6ZfqIE-32" vertex="1">
          <mxGeometry x="1" width="10" height="16" relative="1" as="geometry">
            <mxPoint x="-25" y="7" as="offset" />
          </mxGeometry>
        </mxCell>
        <mxCell id="3cwJru8-qFUgOf6ZfqIE-34" value="" style="line;strokeWidth=1;fillColor=none;align=left;verticalAlign=middle;spacingTop=-1;spacingLeft=3;spacingRight=3;rotatable=0;labelPosition=right;points=[];portConstraint=eastwest;" parent="3cwJru8-qFUgOf6ZfqIE-31" vertex="1">
          <mxGeometry y="30" width="120" height="8" as="geometry" />
        </mxCell>
        <mxCell id="3cwJru8-qFUgOf6ZfqIE-35" value="." style="html=1;align=center;spacingLeft=4;verticalAlign=top;strokeColor=none;fillColor=none;" parent="3cwJru8-qFUgOf6ZfqIE-31" vertex="1">
          <mxGeometry y="38" width="120" height="25" as="geometry" />
        </mxCell>
        <mxCell id="3cwJru8-qFUgOf6ZfqIE-36" value="" style="fontStyle=1;align=center;verticalAlign=top;childLayout=stackLayout;horizontal=1;horizontalStack=0;resizeParent=1;resizeParentMax=0;resizeLast=0;marginBottom=0;strokeColor=#82b366;strokeWidth=2;fillColor=none;" parent="LgvOT38yp8BPmumaJpFH-1" vertex="1">
          <mxGeometry x="519" y="292" width="120" height="63" as="geometry" />
        </mxCell>
        <mxCell id="3cwJru8-qFUgOf6ZfqIE-37" value="Execute&amp;nbsp;&lt;br&gt;&amp;nbsp;Worflow Instance" style="html=1;align=left;spacingLeft=4;verticalAlign=middle;strokeColor=none;fillColor=none;fontStyle=1" parent="3cwJru8-qFUgOf6ZfqIE-36" vertex="1">
          <mxGeometry width="120" height="30" as="geometry" />
        </mxCell>
        <mxCell id="3cwJru8-qFUgOf6ZfqIE-38" value="" style="shape=ellipse;" parent="3cwJru8-qFUgOf6ZfqIE-37" vertex="1">
          <mxGeometry x="1" width="10" height="16" relative="1" as="geometry">
            <mxPoint x="-25" y="7" as="offset" />
          </mxGeometry>
        </mxCell>
        <mxCell id="3cwJru8-qFUgOf6ZfqIE-39" value="" style="line;strokeWidth=1;fillColor=none;align=left;verticalAlign=middle;spacingTop=-1;spacingLeft=3;spacingRight=3;rotatable=0;labelPosition=right;points=[];portConstraint=eastwest;" parent="3cwJru8-qFUgOf6ZfqIE-36" vertex="1">
          <mxGeometry y="30" width="120" height="8" as="geometry" />
        </mxCell>
        <mxCell id="3cwJru8-qFUgOf6ZfqIE-40" value="." style="html=1;align=center;spacingLeft=4;verticalAlign=top;strokeColor=none;fillColor=none;" parent="3cwJru8-qFUgOf6ZfqIE-36" vertex="1">
          <mxGeometry y="38" width="120" height="25" as="geometry" />
        </mxCell>
        <mxCell id="3cwJru8-qFUgOf6ZfqIE-42" style="edgeStyle=none;rounded=0;orthogonalLoop=1;jettySize=auto;html=1;entryX=0.985;entryY=0.479;entryDx=0;entryDy=0;endArrow=open;endFill=0;entryPerimeter=0;" parent="LgvOT38yp8BPmumaJpFH-1" source="3cwJru8-qFUgOf6ZfqIE-41" target="3cwJru8-qFUgOf6ZfqIE-4" edge="1">
          <mxGeometry relative="1" as="geometry" />
        </mxCell>
        <mxCell id="3cwJru8-qFUgOf6ZfqIE-43" style="edgeStyle=none;rounded=0;orthogonalLoop=1;jettySize=auto;html=1;entryX=1;entryY=0.75;entryDx=0;entryDy=0;endArrow=open;endFill=0;" parent="LgvOT38yp8BPmumaJpFH-1" source="3cwJru8-qFUgOf6ZfqIE-41" target="3cwJru8-qFUgOf6ZfqIE-7" edge="1">
          <mxGeometry relative="1" as="geometry" />
        </mxCell>
        <mxCell id="3cwJru8-qFUgOf6ZfqIE-44" style="edgeStyle=none;rounded=0;orthogonalLoop=1;jettySize=auto;html=1;entryX=0;entryY=0.5;entryDx=0;entryDy=0;endArrow=open;endFill=0;" parent="LgvOT38yp8BPmumaJpFH-1" source="3cwJru8-qFUgOf6ZfqIE-41" target="3cwJru8-qFUgOf6ZfqIE-26" edge="1">
          <mxGeometry relative="1" as="geometry" />
        </mxCell>
        <mxCell id="3cwJru8-qFUgOf6ZfqIE-45" style="edgeStyle=none;rounded=0;orthogonalLoop=1;jettySize=auto;html=1;entryX=0;entryY=0.251;entryDx=0;entryDy=0;entryPerimeter=0;endArrow=open;endFill=0;" parent="LgvOT38yp8BPmumaJpFH-1" source="3cwJru8-qFUgOf6ZfqIE-41" target="3cwJru8-qFUgOf6ZfqIE-24" edge="1">
          <mxGeometry relative="1" as="geometry" />
        </mxCell>
        <mxCell id="3cwJru8-qFUgOf6ZfqIE-46" style="edgeStyle=none;rounded=0;orthogonalLoop=1;jettySize=auto;html=1;entryX=0;entryY=1;entryDx=0;entryDy=0;endArrow=open;endFill=0;" parent="LgvOT38yp8BPmumaJpFH-1" source="3cwJru8-qFUgOf6ZfqIE-41" target="3cwJru8-qFUgOf6ZfqIE-32" edge="1">
          <mxGeometry relative="1" as="geometry" />
        </mxCell>
        <mxCell id="3cwJru8-qFUgOf6ZfqIE-47" style="edgeStyle=none;rounded=0;orthogonalLoop=1;jettySize=auto;html=1;entryX=0;entryY=0.75;entryDx=0;entryDy=0;endArrow=open;endFill=0;" parent="LgvOT38yp8BPmumaJpFH-1" source="3cwJru8-qFUgOf6ZfqIE-41" target="3cwJru8-qFUgOf6ZfqIE-37" edge="1">
          <mxGeometry relative="1" as="geometry" />
        </mxCell>
        <mxCell id="3cwJru8-qFUgOf6ZfqIE-41" value="&lt;p style=&quot;line-height: 100%&quot;&gt;&amp;lt;&amp;lt;actor&amp;gt;&amp;gt;&lt;br&gt;&lt;b&gt;Authenticated&lt;br&gt;User&lt;/b&gt;&lt;br&gt;&lt;/p&gt;" style="text;html=1;align=center;verticalAlign=middle;dashed=0;strokeColor=#000000;strokeWidth=2;" parent="LgvOT38yp8BPmumaJpFH-1" vertex="1">
          <mxGeometry x="400" y="82" width="80" height="60" as="geometry" />
        </mxCell>
        <mxCell id="3cwJru8-qFUgOf6ZfqIE-48" value="" style="fontStyle=1;align=center;verticalAlign=top;childLayout=stackLayout;horizontal=1;horizontalStack=0;resizeParent=1;resizeParentMax=0;resizeLast=0;marginBottom=0;strokeColor=#82b366;strokeWidth=2;fillColor=none;" parent="LgvOT38yp8BPmumaJpFH-1" vertex="1">
          <mxGeometry x="519" y="362" width="120" height="63" as="geometry" />
        </mxCell>
        <mxCell id="3cwJru8-qFUgOf6ZfqIE-49" value="Change State of a&lt;br&gt;&amp;nbsp;Worflow Instance" style="html=1;align=left;spacingLeft=4;verticalAlign=middle;strokeColor=none;fillColor=none;fontStyle=1" parent="3cwJru8-qFUgOf6ZfqIE-48" vertex="1">
          <mxGeometry width="120" height="30" as="geometry" />
        </mxCell>
        <mxCell id="3cwJru8-qFUgOf6ZfqIE-50" value="" style="shape=ellipse;" parent="3cwJru8-qFUgOf6ZfqIE-49" vertex="1">
          <mxGeometry x="1" width="10" height="16" relative="1" as="geometry">
            <mxPoint x="-25" y="7" as="offset" />
          </mxGeometry>
        </mxCell>
        <mxCell id="3cwJru8-qFUgOf6ZfqIE-51" value="" style="line;strokeWidth=1;fillColor=none;align=left;verticalAlign=middle;spacingTop=-1;spacingLeft=3;spacingRight=3;rotatable=0;labelPosition=right;points=[];portConstraint=eastwest;" parent="3cwJru8-qFUgOf6ZfqIE-48" vertex="1">
          <mxGeometry y="30" width="120" height="8" as="geometry" />
        </mxCell>
        <mxCell id="3cwJru8-qFUgOf6ZfqIE-52" value="." style="html=1;align=center;spacingLeft=4;verticalAlign=top;strokeColor=none;fillColor=none;" parent="3cwJru8-qFUgOf6ZfqIE-48" vertex="1">
          <mxGeometry y="38" width="120" height="25" as="geometry" />
        </mxCell>
        <mxCell id="3cwJru8-qFUgOf6ZfqIE-54" style="edgeStyle=none;rounded=0;orthogonalLoop=1;jettySize=auto;html=1;endArrow=open;endFill=0;entryX=0.008;entryY=0;entryDx=0;entryDy=0;entryPerimeter=0;" parent="LgvOT38yp8BPmumaJpFH-1" source="3cwJru8-qFUgOf6ZfqIE-53" target="3cwJru8-qFUgOf6ZfqIE-40" edge="1">
          <mxGeometry relative="1" as="geometry">
            <mxPoint x="520" y="362" as="targetPoint" />
          </mxGeometry>
        </mxCell>
        <mxCell id="3cwJru8-qFUgOf6ZfqIE-55" style="edgeStyle=none;rounded=0;orthogonalLoop=1;jettySize=auto;html=1;entryX=0;entryY=1;entryDx=0;entryDy=0;endArrow=open;endFill=0;" parent="LgvOT38yp8BPmumaJpFH-1" source="3cwJru8-qFUgOf6ZfqIE-53" target="3cwJru8-qFUgOf6ZfqIE-49" edge="1">
          <mxGeometry relative="1" as="geometry" />
        </mxCell>
        <mxCell id="3cwJru8-qFUgOf6ZfqIE-53" value="&lt;p style=&quot;line-height: 100%&quot;&gt;&amp;lt;&amp;lt;actor&amp;gt;&amp;gt;&lt;br&gt;&lt;b&gt;Daemon&lt;/b&gt;&lt;/p&gt;" style="text;html=1;align=center;verticalAlign=middle;dashed=0;strokeColor=#000000;strokeWidth=2;" parent="LgvOT38yp8BPmumaJpFH-1" vertex="1">
          <mxGeometry x="400" y="332" width="80" height="60" as="geometry" />
        </mxCell>
        <mxCell id="eSdVnoTi_x1fAvsK6LW--0" value="Title" parent="LgvOT38yp8BPmumaJpFH-0" visible="0" />
        <mxCell id="qKL6eza0Rr9l6BfAeis2-0" value="&lt;font style=&quot;font-size: 12px ; font-weight: normal&quot;&gt;&lt;i&gt;&lt;span style=&quot;font-size: 12px&quot;&gt;Diagram: Base System Logical Module -&amp;nbsp;&lt;/span&gt;&lt;span style=&quot;font-size: 12px&quot;&gt;Functionality -&amp;nbsp;&lt;/span&gt;Workflow Management&lt;/i&gt;&lt;/font&gt;" style="text;strokeColor=none;fillColor=none;html=1;fontSize=12;fontStyle=1;verticalAlign=middle;align=left;shadow=0;glass=0;comic=0;opacity=30;fontColor=#808080;" parent="eSdVnoTi_x1fAvsK6LW--0" vertex="1">
          <mxGeometry x="119" y="440" width="520" height="20" as="geometry" />
        </mxCell>
      </root>
    </mxGraphModel>
  </diagram>
</mxfile>
